<svg xmlns="http://www.w3.org/2000/svg" width="128" height="128" viewBox="0 0 128 128">
  <!-- Background circle -->
  <circle cx="64" cy="64" r="60" fill="#000000" stroke="#0a0a0a" stroke-width="2"/>
  
  <!-- Chat bubble -->
  <path d="M32 35 C32 30, 36 26, 41 26 L87 26 C92 26, 96 30, 96 35 L96 55 C96 60, 92 64, 87 64 L51 64 L41 74 L41 64 C36 64, 32 60, 32 55 Z" fill="white" stroke="#E8E8E8" stroke-width="1"/>
  
  <!-- Question mark -->
  <text x="64" y="50" font-family="Arial, sans-serif" font-size="20" font-weight="bold" text-anchor="middle" fill="#000000">?</text>
  
  <!-- Input line/cursor -->
  <rect x="38" y="85" width="40" height="3" fill="white" opacity="0.9"/>
  <rect x="80" y="82" width="2" height="9" fill="#00D4FF"/>
  
  <!-- Small input prompt dots -->
  <circle cx="86" cy="86" r="1.5" fill="white" opacity="0.7"/>
  <circle cx="90" cy="86" r="1.5" fill="white" opacity="0.5"/>
  <circle cx="94" cy="86" r="1.5" fill="white" opacity="0.3"/>
</svg> 